<svg version="1.1" id="Layer_1" xmlns="http://www.w3.org/2000/svg" xmlns:xlink="http://www.w3.org/1999/xlink" x="0px" y="0px"
	 width="100%" viewBox="0 0 1024 1024" enable-background="new 0 0 1024 1024" xml:space="preserve">
<path fill="#000000" opacity="1.000000" stroke="none" 
	d="
M1025.000000,359.000000 
	C1025.000000,581.333313 1025.000000,803.166687 1025.000000,1025.000000 
	C683.666687,1025.000000 342.333344,1025.000000 1.000000,1025.000000 
	C1.000000,683.666687 1.000000,342.333344 1.000000,1.000000 
	C342.333344,1.000000 683.666687,1.000000 1025.000000,1.000000 
	C1025.000000,120.166664 1025.000000,239.333328 1025.000000,359.000000 
M46.699810,464.124878 
	C46.174923,469.426971 45.506874,474.719360 45.147118,480.032654 
	C41.215923,538.093384 47.525940,595.017456 64.750114,650.618042 
	C93.174889,742.374817 144.863510,818.532471 219.675323,878.694519 
	C295.760986,939.880981 382.965668,973.428650 480.190521,980.820251 
	C524.792664,984.211182 569.022034,980.853149 612.717468,971.115356 
	C720.397522,947.118225 809.136230,892.244568 878.448181,806.556824 
	C939.855469,730.641235 973.391174,643.374023 980.776672,546.154236 
	C985.184753,488.128815 978.536255,431.158142 961.317627,375.566803 
	C932.095032,281.220459 878.449341,203.481918 800.612793,142.779373 
	C725.773560,84.414322 640.537537,52.385250 546.012756,45.193802 
	C501.236267,41.787205 456.869202,45.277802 412.983154,54.901302 
	C328.646729,73.394913 254.986038,112.303902 192.017136,171.203659 
	C141.456436,218.497040 103.313606,274.497620 77.566498,338.800446 
	C61.542610,378.819702 51.174007,420.291992 46.699810,464.124878 
z"/>
<path fill="#FEFEFE" opacity="1.000000" stroke="none" 
	d="
M46.755493,463.673035 
	C51.174007,420.291992 61.542610,378.819702 77.566498,338.800446 
	C103.313606,274.497620 141.456436,218.497040 192.017136,171.203659 
	C254.986038,112.303902 328.646729,73.394913 412.983154,54.901302 
	C456.869202,45.277802 501.236267,41.787205 546.012756,45.193802 
	C640.537537,52.385250 725.773560,84.414322 800.612793,142.779373 
	C878.449341,203.481918 932.095032,281.220459 961.317627,375.566803 
	C978.536255,431.158142 985.184753,488.128815 980.776672,546.154236 
	C973.391174,643.374023 939.855469,730.641235 878.448181,806.556824 
	C809.136230,892.244568 720.397522,947.118225 612.717468,971.115356 
	C569.022034,980.853149 524.792664,984.211182 480.190521,980.820251 
	C382.965668,973.428650 295.760986,939.880981 219.675323,878.694519 
	C144.863510,818.532471 93.174889,742.374817 64.750114,650.618042 
	C47.525940,595.017456 41.215923,538.093384 45.147118,480.032654 
	C45.506874,474.719360 46.174923,469.426971 46.755493,463.673035 
M174.708008,764.233887 
	C175.477127,765.139465 176.246262,766.045044 177.169220,767.539490 
	C177.745102,768.094238 178.320999,768.649048 179.061935,769.854858 
	C185.352081,777.368652 191.433411,785.069519 197.967789,792.364563 
	C229.653656,827.739014 265.645538,857.782837 307.439728,880.677673 
	C342.027649,899.624939 378.078918,915.116394 416.564148,923.804260 
	C465.349121,934.817322 514.760437,936.349792 564.548767,931.252563 
	C606.753967,926.931641 646.642151,914.950256 685.028381,897.505249 
	C720.752747,881.270020 754.436768,861.550354 783.862122,835.358765 
	C797.890198,822.872437 810.889954,809.230896 824.916809,795.803284 
	C832.955688,786.298401 841.320679,777.047546 848.963257,767.234070 
	C863.325562,748.792114 875.529785,728.941101 886.473083,707.545227 
	C889.068726,702.358154 891.771790,697.221680 894.242188,691.975647 
	C907.852966,663.072388 919.217285,633.328796 925.372620,601.908936 
	C928.137451,587.795959 929.303894,573.360046 930.962341,559.043579 
	C932.045349,549.694092 932.709045,540.295959 933.782288,530.150269 
	C934.659607,503.857574 933.287842,477.687988 930.055237,451.574097 
	C926.176147,420.237762 917.869507,390.138519 905.787109,360.295013 
	C905.217346,358.913513 904.649780,357.531158 904.077393,356.150696 
	C890.023865,322.253265 872.818787,290.065948 850.524048,260.865631 
	C841.160767,248.602203 830.624451,237.196609 820.166748,225.818954 
	C812.217957,217.171021 803.550659,209.183502 794.879028,200.300507 
	C758.365723,166.076797 715.968567,141.243759 670.052856,121.999016 
	C634.846680,107.242966 598.314148,97.789574 560.281555,94.217422 
	C532.537903,91.611656 504.708069,90.634811 476.994446,93.422974 
	C455.865662,95.548668 434.571381,98.041992 413.966583,102.954666 
	C367.851074,113.949677 325.104065,133.411362 285.009399,158.693848 
	C265.537201,170.972443 247.353699,184.892654 230.171204,201.121765 
	C200.563080,228.307236 173.874893,258.003357 153.913086,293.089661 
	C143.921478,310.651581 135.332092,329.011261 125.617210,347.542725 
	C119.820686,363.067993 113.582054,378.445526 108.333588,394.153900 
	C100.876732,416.471832 96.739883,439.531830 94.652061,463.767487 
	C94.001297,471.895569 93.191826,480.014557 92.726868,488.153259 
	C90.560898,526.066772 92.995071,563.676392 100.506897,601.811584 
	C101.461838,606.519836 102.117195,611.312683 103.419769,615.922729 
	C112.719261,648.835205 124.646553,680.777405 141.295425,710.688171 
	C150.721008,727.621765 161.660492,743.712646 172.053040,760.777527 
	C172.810486,761.669312 173.567932,762.561035 174.423386,763.563049 
	C174.423386,763.563049 174.476242,763.700745 174.708008,764.233887 
z"/>
<path fill="#E2590A" opacity="1.000000" stroke="none" 
	d="
M824.355591,796.112671 
	C810.889954,809.230896 797.890198,822.872437 783.862122,835.358765 
	C754.436768,861.550354 720.752747,881.270020 685.028381,897.505249 
	C646.642151,914.950256 606.753967,926.931641 564.548767,931.252563 
	C514.760437,936.349792 465.349121,934.817322 416.564148,923.804260 
	C378.078918,915.116394 342.027649,899.624939 307.439728,880.677673 
	C265.645538,857.782837 229.653656,827.739014 197.967789,792.364563 
	C191.433411,785.069519 185.352081,777.368652 179.169907,769.253174 
	C183.361435,770.779907 187.708664,772.529724 191.456528,775.140137 
	C195.431854,777.908936 198.849319,781.482300 202.488617,784.728699 
	C204.814972,786.803955 206.991852,789.063232 209.435501,790.986145 
	C212.172745,793.140137 215.135422,795.007751 218.344574,797.034241 
	C219.392914,797.484192 220.212036,797.780518 220.783691,798.332886 
	C238.598969,815.550781 257.685944,831.316406 278.592163,844.512207 
	C295.788910,855.366577 313.730194,865.179749 331.934052,874.267456 
	C358.569336,887.564453 386.422974,897.686768 415.544006,904.514404 
	C439.624146,910.160217 463.893036,914.423218 488.498138,915.732056 
	C506.384949,916.683472 524.425110,915.887207 542.338013,914.852173 
	C556.499390,914.033875 570.670227,912.247192 584.660706,909.858643 
	C608.381836,905.808899 631.704346,900.032349 654.176514,891.148132 
	C660.304565,888.725464 666.719238,887.027832 673.400024,884.990662 
	C679.720947,882.898132 685.743591,881.053894 691.544189,878.669556 
	C699.983154,875.200806 708.408569,871.637390 716.573425,867.578613 
	C727.408997,862.192200 737.991089,856.295410 748.668640,850.592712 
	C749.241516,850.286743 749.660706,849.706604 750.199646,849.321533 
	C760.698914,841.819336 771.377441,834.554565 781.662048,826.769165 
	C791.939941,818.988770 801.682861,810.501709 811.958313,802.717773 
	C815.643677,799.925903 820.197937,798.281067 824.355591,796.112671 
z"/>
<path fill="#E99510" opacity="1.000000" stroke="none" 
	d="
M230.793793,200.905060 
	C247.353699,184.892654 265.537201,170.972443 285.009399,158.693848 
	C325.104065,133.411362 367.851074,113.949677 413.966583,102.954666 
	C434.571381,98.041992 455.865662,95.548668 476.994446,93.422974 
	C504.708069,90.634811 532.537903,91.611656 560.281555,94.217422 
	C598.314148,97.789574 634.846680,107.242966 670.052856,121.999016 
	C715.968567,141.243759 758.365723,166.076797 794.770264,200.778305 
	C795.227966,202.457703 795.572388,203.849792 796.406372,204.821930 
	C798.236938,206.955704 800.512390,208.719849 802.258850,210.911682 
	C810.760681,221.581253 819.488403,232.096588 827.460876,243.153412 
	C833.148438,251.041321 837.769775,259.698364 842.847900,268.023804 
	C843.005920,268.282837 842.952393,268.670898 842.652100,268.960938 
	C840.451904,267.123016 838.248352,265.562164 836.815247,263.472839 
	C833.877930,259.190643 831.909058,254.141724 828.544373,250.276367 
	C821.492371,242.175095 813.821594,234.609863 806.327148,226.900055 
	C805.472107,226.020432 804.121033,225.622894 802.730957,224.810760 
	C801.288147,223.226593 800.269531,221.656754 798.916016,220.468445 
	C788.210327,211.069870 777.639099,201.501419 766.615540,192.487854 
	C760.131042,187.185623 752.896973,182.800217 745.749390,178.001678 
	C745.331726,178.000610 745.164612,178.000305 744.956665,177.679474 
	C744.277161,176.906784 743.638611,176.454620 742.749390,176.001678 
	C742.331726,176.000610 742.164612,176.000305 741.956665,175.679489 
	C741.277100,174.906799 740.638550,174.454636 739.655029,173.967285 
	C737.205872,172.621414 735.101685,171.310715 732.956665,169.679474 
	C732.277161,168.906799 731.638550,168.454620 730.687134,167.864746 
	C719.582336,161.485596 708.790405,155.244186 697.797546,148.726135 
	C683.147644,141.698685 669.138000,133.676163 654.146118,128.496780 
	C631.957214,120.830956 609.355286,113.797379 586.396973,109.090012 
	C565.940369,104.895584 544.800476,103.041214 523.889282,102.347183 
	C504.584229,101.706451 485.145813,103.528496 465.834167,105.100967 
	C448.374451,106.522652 431.218414,109.512344 414.358612,115.061211 
	C394.204376,121.694321 373.476349,126.576370 354.315399,136.044144 
	C345.549805,140.375366 336.772949,144.683929 327.645691,149.039551 
	C324.962677,150.312790 322.567932,151.438599 320.319794,152.805481 
	C311.955566,157.890945 303.619232,163.023178 295.312775,168.202560 
	C290.170807,171.408768 285.101746,174.731827 279.650848,178.037079 
	C271.044678,184.132507 262.425232,189.764221 254.618134,196.357788 
	C243.760025,205.528168 233.510590,215.419250 222.655914,225.035187 
	C214.870758,232.384583 207.273453,239.551086 200.077133,247.099869 
	C197.647202,249.648834 196.536255,253.411850 194.287979,256.186981 
	C190.413361,260.969574 186.120056,265.412964 182.037415,269.643982 
	C185.333710,263.101593 188.017624,256.512115 191.982635,250.814087 
	C199.114075,240.565750 206.812195,230.688904 214.669159,220.976883 
	C219.299881,215.252823 224.753113,210.199509 229.678635,204.703140 
	C230.473434,203.816254 230.442841,202.189697 230.793793,200.905060 
z"/>
<path fill="#E36A0C" opacity="1.000000" stroke="none" 
	d="
M933.560547,530.919617 
	C932.709045,540.295959 932.045349,549.694092 930.962341,559.043579 
	C929.303894,573.360046 928.137451,587.795959 925.372620,601.908936 
	C919.217285,633.328796 907.852966,663.072388 894.242188,691.975647 
	C891.771790,697.221680 889.068726,702.358154 885.845215,707.779663 
	C883.739563,709.165344 882.022156,710.114685 880.841125,711.516052 
	C879.146423,713.526917 878.052124,716.048340 876.334839,718.034912 
	C870.007324,725.354858 863.731384,732.741089 856.996643,739.675659 
	C854.654541,742.087402 851.037292,743.260803 848.037231,744.650635 
	C849.163391,742.661865 850.355713,741.080017 851.330750,739.373962 
	C863.487610,718.101990 876.549072,697.274963 887.390442,675.350647 
	C893.758057,662.473450 896.582153,647.843872 901.043945,633.619690 
	C903.806946,625.644043 906.836731,618.144714 909.157532,610.432007 
	C911.474609,602.731750 913.081726,594.817810 915.362183,586.933105 
	C916.842041,584.050476 918.022156,581.255066 919.064148,578.409119 
	C921.075928,572.914734 923.546326,567.515808 924.854553,561.852783 
	C926.999023,552.570190 928.270081,543.088196 930.190247,533.748047 
	C930.421753,532.621887 932.394653,531.853760 933.560547,530.919617 
z"/>
<path fill="#E3650B" opacity="1.000000" stroke="none" 
	d="
M218.000000,797.000000 
	C215.135422,795.007751 212.172745,793.140137 209.435501,790.986145 
	C206.991852,789.063232 204.814972,786.803955 202.488617,784.728699 
	C198.849319,781.482300 195.431854,777.908936 191.456528,775.140137 
	C187.708664,772.529724 183.361435,770.779907 179.087372,768.927673 
	C178.320999,768.649048 177.745102,768.094238 177.224152,766.933960 
	C178.252579,763.417480 177.070740,762.805725 174.476242,763.700745 
	C174.476242,763.700745 174.423386,763.563049 174.572800,763.150269 
	C174.659103,759.356628 174.399399,759.120056 171.918091,760.183105 
	C161.660492,743.712646 150.721008,727.621765 141.295425,710.688171 
	C124.646553,680.777405 112.719261,648.835205 103.419769,615.922729 
	C102.117195,611.312683 101.461838,606.519836 100.882736,601.415527 
	C104.193954,605.863586 107.389107,610.572449 109.997093,615.586792 
	C113.063522,621.482544 115.517395,627.694763 118.491409,633.642517 
	C119.039345,634.738220 120.798843,635.228088 122.147079,636.336609 
	C125.197723,644.117920 128.100388,651.560181 131.041656,659.370789 
	C135.062958,667.853638 138.682846,676.172058 143.103516,684.040466 
	C152.429337,700.639526 161.892105,717.176636 171.864975,733.390930 
	C176.944534,741.649658 183.249924,749.154419 189.036118,757.354492 
	C195.267334,766.862732 201.301819,776.132141 207.730927,785.119324 
	C210.763626,789.358765 214.553314,793.056702 218.000000,797.000000 
z"/>
<path fill="#E45E0A" opacity="1.000000" stroke="none" 
	d="
M848.002441,744.999756 
	C851.037292,743.260803 854.654541,742.087402 856.996643,739.675659 
	C863.731384,732.741089 870.007324,725.354858 876.334839,718.034912 
	C878.052124,716.048340 879.146423,713.526917 880.841125,711.516052 
	C882.022156,710.114685 883.739563,709.165344 885.584839,708.010803 
	C875.529785,728.941101 863.325562,748.792114 848.963257,767.234070 
	C841.320679,777.047546 832.955688,786.298401 824.636230,795.958008 
	C820.197937,798.281067 815.643677,799.925903 811.958313,802.717773 
	C801.682861,810.501709 791.939941,818.988770 781.662048,826.769165 
	C771.377441,834.554565 760.698914,841.819336 750.199646,849.321533 
	C749.660706,849.706604 749.241516,850.286743 748.668640,850.592712 
	C737.991089,856.295410 727.408997,862.192200 716.573425,867.578613 
	C708.408569,871.637390 699.983154,875.200806 691.544189,878.669556 
	C685.743591,881.053894 679.720947,882.898132 673.457275,884.641357 
	C673.420715,883.925537 673.647461,883.405884 674.039246,883.199768 
	C690.626282,874.471924 707.471252,866.198547 723.743652,856.920715 
	C734.799744,850.616821 745.373840,843.335571 755.582886,835.713867 
	C766.447815,827.602478 776.609741,818.551697 787.113708,809.953918 
	C794.898560,803.581848 803.496277,797.999512 810.379089,790.776245 
	C820.866089,779.770264 830.183472,767.649719 840.271973,755.802551 
	C843.031738,752.068359 845.517090,748.534058 848.002441,744.999756 
z"/>
<path fill="#E57A0D" opacity="1.000000" stroke="none" 
	d="
M933.671387,530.534912 
	C932.394653,531.853760 930.421753,532.621887 930.190247,533.748047 
	C928.270081,543.088196 926.999023,552.570190 924.854553,561.852783 
	C923.546326,567.515808 921.075928,572.914734 919.064148,578.409119 
	C918.022156,581.255066 916.842041,584.050476 915.410889,586.536865 
	C916.390259,581.439880 918.292114,576.744507 918.847290,571.894958 
	C919.955505,562.214600 920.891846,552.447266 920.849792,542.720398 
	C920.802002,531.657288 919.706055,520.591492 918.854675,509.543152 
	C918.581787,506.002136 917.637268,502.512909 917.010010,498.577118 
	C917.346619,495.213562 917.916260,492.276062 917.955017,489.331604 
	C918.077148,480.048584 918.367676,470.744171 917.894287,461.483765 
	C917.441467,452.626373 916.218506,443.800903 915.138611,434.985352 
	C914.238647,427.638885 913.055359,420.327118 911.996765,412.574219 
	C909.780945,398.635254 907.534912,385.127045 905.373840,371.605286 
	C904.869507,368.449341 904.608948,365.250610 904.375183,362.061340 
	C904.352356,361.750000 905.311462,361.366669 905.814819,361.016785 
	C917.869507,390.138519 926.176147,420.237762 930.055237,451.574097 
	C933.287842,477.687988 934.659607,503.857574 933.671387,530.534912 
z"/>
<path fill="#E7880F" opacity="1.000000" stroke="none" 
	d="
M905.800964,360.655884 
	C905.311462,361.366669 904.352356,361.750000 904.375183,362.061340 
	C904.608948,365.250610 904.869507,368.449341 905.373840,371.605286 
	C907.534912,385.127045 909.780945,398.635254 911.636597,412.506226 
	C910.799194,411.902039 910.334900,410.932983 909.841003,409.979279 
	C906.563416,403.651001 903.279419,397.326050 899.954102,390.616058 
	C897.600159,381.622833 895.941956,372.772217 892.861755,364.447723 
	C881.941467,334.935211 867.531738,307.150482 849.993652,280.632935 
	C847.658997,276.508362 845.328308,272.753571 842.997559,268.998779 
	C842.952393,268.670898 843.005920,268.282837 842.847900,268.023804 
	C837.769775,259.698364 833.148438,251.041321 827.460876,243.153412 
	C819.488403,232.096588 810.760681,221.581253 802.258850,210.911682 
	C800.512390,208.719849 798.236938,206.955704 796.406372,204.821930 
	C795.572388,203.849792 795.227966,202.457703 794.932251,201.079102 
	C803.550659,209.183502 812.217957,217.171021 820.166748,225.818954 
	C830.624451,237.196609 841.160767,248.602203 850.524048,260.865631 
	C872.818787,290.065948 890.023865,322.253265 904.077393,356.150696 
	C904.649780,357.531158 905.217346,358.913513 905.800964,360.655884 
z"/>
<path fill="#E7880E" opacity="1.000000" stroke="none" 
	d="
M230.482498,201.013412 
	C230.442841,202.189697 230.473434,203.816254 229.678635,204.703140 
	C224.753113,210.199509 219.299881,215.252823 214.669159,220.976883 
	C206.812195,230.688904 199.114075,240.565750 191.982635,250.814087 
	C188.017624,256.512115 185.333710,263.101593 181.888153,269.948669 
	C177.960449,277.104004 174.185806,283.582428 170.513580,290.118347 
	C170.061905,290.922272 170.157349,292.033569 169.658875,293.051727 
	C165.453873,299.231964 161.335739,305.219421 157.770340,311.519684 
	C144.996201,334.092224 133.690918,357.306976 127.879768,382.810699 
	C127.257484,385.541748 126.627617,388.271088 125.650742,391.055359 
	C124.216782,392.835876 122.953133,394.477295 122.089890,396.307556 
	C120.595345,399.476318 119.348953,402.762085 117.718498,405.743652 
	C117.717659,400.524445 117.419861,395.444855 118.386124,390.618317 
	C121.087051,377.126984 124.349434,363.748688 127.247849,350.295074 
	C127.456444,349.326843 126.515160,348.110901 126.108513,347.010132 
	C135.332092,329.011261 143.921478,310.651581 153.913086,293.089661 
	C173.874893,258.003357 200.563080,228.307236 230.482498,201.013412 
z"/>
<path fill="#E4720C" opacity="1.000000" stroke="none" 
	d="
M121.999115,635.997559 
	C120.798843,635.228088 119.039345,634.738220 118.491409,633.642517 
	C115.517395,627.694763 113.063522,621.482544 109.997093,615.586792 
	C107.389107,610.572449 104.193954,605.863586 100.851547,600.978455 
	C92.995071,563.676392 90.560898,526.066772 92.726868,488.153259 
	C93.191826,480.014557 94.001297,471.895569 95.207413,463.470673 
	C96.145744,463.667633 96.810371,464.129883 96.869667,464.659882 
	C97.841972,473.350433 96.545204,482.302887 99.955566,490.721588 
	C100.244881,491.435760 99.875282,492.389313 100.021645,493.193451 
	C100.981720,498.468170 101.999512,503.732361 103.009140,509.423035 
	C103.345566,511.630341 103.877670,513.404907 103.962120,515.200500 
	C104.374550,523.970154 104.426323,532.763367 105.076843,541.513245 
	C105.626259,548.903198 106.462257,556.312073 107.820358,563.591553 
	C109.536835,572.791870 111.911217,581.869446 114.002571,591.424683 
	C115.616135,601.246216 117.182869,610.651245 118.859657,620.036621 
	C119.813156,625.373535 120.946663,630.678284 121.999115,635.997559 
z"/>
<path fill="#E57E0E" opacity="1.000000" stroke="none" 
	d="
M102.998474,509.000000 
	C101.999512,503.732361 100.981720,498.468170 100.021645,493.193451 
	C99.875282,492.389313 100.244881,491.435760 99.955566,490.721588 
	C96.545204,482.302887 97.841972,473.350433 96.869667,464.659882 
	C96.810371,464.129883 96.145744,463.667633 95.367195,463.088684 
	C96.739883,439.531830 100.876732,416.471832 108.333588,394.153900 
	C113.582054,378.445526 119.820686,363.067993 125.862862,347.276428 
	C126.515160,348.110901 127.456444,349.326843 127.247849,350.295074 
	C124.349434,363.748688 121.087051,377.126984 118.386124,390.618317 
	C117.419861,395.444855 117.717659,400.524445 117.710999,406.147461 
	C116.988579,413.537994 115.993683,420.269592 114.633141,427.067322 
	C113.513084,428.876923 112.336670,430.558441 112.070297,432.373535 
	C109.714981,448.422577 105.426559,464.188629 106.803055,480.754761 
	C107.550667,489.752197 106.333466,498.912933 105.707230,508.125244 
	C104.607452,508.500336 103.802963,508.750183 102.998474,509.000000 
z"/>
<path fill="#E2590A" opacity="1.000000" stroke="none" 
	d="
M171.985565,760.480347 
	C174.399399,759.120056 174.659103,759.356628 174.523788,763.095154 
	C173.567932,762.561035 172.810486,761.669312 171.985565,760.480347 
z"/>
<path fill="#E2590A" opacity="1.000000" stroke="none" 
	d="
M174.592133,763.967285 
	C177.070740,762.805725 178.252579,763.417480 177.147217,766.639465 
	C176.246262,766.045044 175.477127,765.139465 174.592133,763.967285 
z"/>
<path fill="#ED5F09" opacity="1.000000" stroke="none" 
	d="
M839.997559,756.002441 
	C830.183472,767.649719 820.866089,779.770264 810.379089,790.776245 
	C803.496277,797.999512 794.898560,803.581848 787.113708,809.953918 
	C776.609741,818.551697 766.447815,827.602478 755.582886,835.713867 
	C745.373840,843.335571 734.799744,850.616821 723.743652,856.920715 
	C707.471252,866.198547 690.626282,874.471924 674.039246,883.199768 
	C673.647461,883.405884 673.420715,883.925537 673.059692,884.648193 
	C666.719238,887.027832 660.304565,888.725464 654.176514,891.148132 
	C631.704346,900.032349 608.381836,905.808899 584.660706,909.858643 
	C570.670227,912.247192 556.499390,914.033875 542.338013,914.852173 
	C524.425110,915.887207 506.384949,916.683472 488.498138,915.732056 
	C463.893036,914.423218 439.624146,910.160217 415.544006,904.514404 
	C386.422974,897.686768 358.569336,887.564453 331.934052,874.267456 
	C313.730194,865.179749 295.788910,855.366577 278.592163,844.512207 
	C257.685944,831.316406 238.598969,815.550781 220.783691,798.332886 
	C220.212036,797.780518 219.392914,797.484192 218.344574,797.034241 
	C214.553314,793.056702 210.763626,789.358765 207.730927,785.119324 
	C201.301819,776.132141 195.267334,766.862732 189.426147,757.354980 
	C192.228027,758.416870 194.866287,759.586609 197.077026,761.306152 
	C200.447220,763.927551 203.094086,768.266724 206.821167,769.458191 
	C212.509720,771.276733 216.802963,774.386108 220.883316,778.332214 
	C222.284134,779.687012 223.858475,781.545288 225.554764,781.792419 
	C232.579910,782.815979 239.681198,783.900330 246.756088,783.910706 
	C338.578339,784.045410 430.404053,784.481018 522.222351,783.864624 
	C613.953674,783.248901 705.714905,786.546692 797.411743,781.893433 
	C799.781799,781.773071 802.283142,780.390442 804.353027,779.032227 
	C808.323853,776.426575 811.652588,772.261292 815.938904,770.865295 
	C821.257935,769.132874 825.249329,766.173645 828.150024,762.019470 
	C831.217224,757.626831 835.174744,756.278687 839.997559,756.002441 
z"/>
<path fill="#F5960D" opacity="1.000000" stroke="none" 
	d="
M697.998474,149.002777 
	C708.790405,155.244186 719.582336,161.485596 730.729004,168.184738 
	C731.721680,169.094971 732.359619,169.547485 732.997559,170.000000 
	C735.101685,171.310715 737.205872,172.621414 739.696899,174.287292 
	C740.721680,175.094971 741.359619,175.547485 741.997559,176.000000 
	C742.164612,176.000305 742.331726,176.000610 742.791260,176.321671 
	C743.721680,177.094955 744.359619,177.547470 744.997559,178.000000 
	C745.164612,178.000305 745.331726,178.000610 745.785278,178.350677 
	C752.788086,186.168472 759.503967,193.636948 766.225159,201.100601 
	C766.331726,201.218994 766.529297,201.253815 766.640808,201.369614 
	C773.812561,208.817413 781.012451,216.238800 788.094666,223.770920 
	C788.773438,224.492783 788.715820,225.907104 788.532776,227.000000 
	C783.093567,227.000000 778.121582,227.000000 773.149658,227.000000 
	C773.127808,227.484055 773.105957,227.968094 773.084045,228.452148 
	C775.853638,231.450729 778.623230,234.449310 782.259705,238.386475 
	C602.125549,238.386475 423.673218,238.386475 245.220871,238.386475 
	C245.012100,237.992416 244.803329,237.598373 244.594559,237.204315 
	C247.424057,234.242554 250.253555,231.280792 253.083054,228.319016 
	C252.945526,227.879349 252.807999,227.439667 252.670471,227.000000 
	C247.446991,227.000000 242.223495,227.000000 237.004089,226.634796 
	C242.274048,219.879654 247.400726,213.367477 252.862198,207.149353 
	C255.762924,203.846725 259.347931,201.155197 262.428772,197.997330 
	C264.662781,195.707474 266.522858,193.057831 268.644165,190.651932 
	C272.391479,186.401978 276.210785,182.215500 279.999939,178.002441 
	C285.101746,174.731827 290.170807,171.408768 295.312775,168.202560 
	C303.619232,163.023178 311.955566,157.890945 320.319794,152.805481 
	C322.567932,151.438599 324.962677,150.312790 327.880920,149.308060 
	C329.901886,149.952744 331.332062,150.365707 334.059601,151.153290 
	C327.126160,155.101654 321.175354,158.147888 315.650848,161.833191 
	C313.859711,163.028061 313.185242,165.896866 311.695343,168.148849 
	C305.513336,172.283798 299.635986,176.269913 293.758667,180.256027 
	C293.995392,180.863373 294.232117,181.470703 294.468842,182.078033 
	C298.874115,182.574341 303.279388,183.070633 308.151825,183.619568 
	C298.113129,192.715546 288.648071,201.291748 278.380951,210.594696 
	C435.242493,210.594696 590.842529,210.594696 747.587585,210.594696 
	C737.290894,201.213791 727.798401,192.565491 717.999939,183.638458 
	C723.039246,182.993118 727.412659,182.433044 731.786011,181.872986 
	C731.893250,181.239761 732.000427,180.606552 732.107666,179.973343 
	C726.071777,175.982224 720.035889,171.991104 713.999512,167.615082 
	C712.994568,165.485794 712.385315,163.206024 710.901611,162.110657 
	C707.989441,159.960602 704.558105,158.525406 701.402588,156.689621 
	C698.549377,155.029709 695.777405,153.230133 692.341064,151.103104 
	C695.022949,150.107452 696.510742,149.555130 697.998474,149.002777 
z"/>
<path fill="#F4930D" opacity="1.000000" stroke="none" 
	d="
M279.650879,178.037094 
	C276.210785,182.215500 272.391479,186.401978 268.644165,190.651932 
	C266.522858,193.057831 264.662781,195.707474 262.428772,197.997330 
	C259.347931,201.155197 255.762924,203.846725 252.862198,207.149353 
	C247.400726,213.367477 242.274048,219.879654 236.734741,226.825363 
	C233.192352,231.117401 229.923401,234.853668 226.096069,239.228134 
	C231.213974,239.960190 235.017044,240.504181 239.932098,241.207230 
	C237.754272,243.572647 236.592560,244.557861 235.779938,245.775940 
	C234.195190,248.151520 232.805817,250.657440 231.335541,253.109406 
	C234.127197,253.739609 236.918610,254.920090 239.710571,254.921417 
	C421.956940,255.008423 604.203369,255.000015 786.449768,254.999512 
	C787.782410,254.999512 789.183289,255.251114 790.430176,254.922241 
	C791.927795,254.527222 793.808655,253.967010 794.535645,252.840698 
	C795.015076,252.097809 794.056091,249.992416 793.209045,248.915741 
	C791.317749,246.511688 789.093323,244.369781 786.000183,241.039780 
	C791.156067,240.400604 794.920410,239.933945 800.104187,239.291306 
	C795.913818,234.653000 792.456909,230.826508 789.000000,227.000000 
	C788.715820,225.907104 788.773438,224.492783 788.094666,223.770920 
	C781.012451,216.238800 773.812561,208.817413 766.640808,201.369614 
	C766.529297,201.253815 766.331726,201.218994 766.225159,201.100601 
	C759.503967,193.636948 752.788086,186.168472 746.035889,178.351440 
	C752.896973,182.800217 760.131042,187.185623 766.615540,192.487854 
	C777.639099,201.501419 788.210327,211.069870 798.916016,220.468445 
	C800.269531,221.656754 801.288147,223.226593 802.731323,225.192596 
	C803.575134,227.249268 803.907043,228.895386 804.770935,230.185333 
	C807.066589,233.613480 813.284729,235.359924 809.336121,241.374863 
	C809.185425,241.604340 809.585876,242.350677 809.899414,242.706421 
	C814.012146,247.372803 818.500488,251.797882 819.135132,258.520935 
	C819.184204,259.040771 820.063293,259.443573 820.450928,259.977478 
	C821.672424,261.659607 822.843689,263.378235 824.899170,266.320831 
	C821.505432,266.320831 819.477112,266.080109 817.533325,266.382629 
	C815.174011,266.749786 812.886047,267.575317 810.567200,268.202515 
	C811.232361,270.219910 811.789307,272.282013 812.598877,274.239716 
	C813.180969,275.647339 814.100098,276.915558 815.327026,279.038940 
	C790.133362,279.038940 766.014526,279.038940 741.532166,279.018188 
	C740.444946,278.940247 739.721191,278.883087 738.892456,278.449280 
	C735.071350,276.865204 731.328125,275.321289 727.583862,279.052490 
	C722.110046,279.394409 717.053833,279.626312 711.952332,279.572205 
	C711.576843,278.996643 711.246704,278.707153 710.916565,278.417664 
	C710.611389,278.926453 710.306213,279.435242 709.600159,280.070801 
	C703.465149,280.746368 697.731079,281.295135 691.902161,281.475281 
	C687.836487,280.404419 683.866333,279.092865 679.894836,279.088837 
	C570.709900,278.977844 461.524872,279.000000 352.339844,279.000244 
	C351.174774,279.000275 349.942963,278.758179 348.857452,279.053009 
	C345.872955,279.863586 342.949890,280.900085 339.566589,281.909180 
	C333.420074,281.296906 327.709534,280.622589 321.960632,279.659271 
	C321.613068,279.051514 321.303833,278.732788 320.994598,278.414062 
	C320.663788,278.896576 320.332977,279.379120 319.544189,279.922516 
	C314.056946,279.637817 309.027740,279.292267 303.905762,278.560425 
	C300.106110,276.686157 296.418243,275.512726 292.645447,278.898407 
	C291.561859,278.991974 290.835175,279.016144 289.633179,279.027893 
	C263.298798,279.015472 237.439758,279.015472 210.752869,279.015472 
	C211.872955,277.005585 212.591339,275.952850 213.072876,274.801117 
	C213.960083,272.679077 214.708160,270.498871 215.514221,268.342896 
	C212.910950,267.767700 210.320282,267.124237 207.700027,266.641113 
	C205.927155,266.314270 204.112686,266.212952 201.287674,265.894928 
	C203.984772,262.231079 207.342880,259.714630 207.541260,256.969757 
	C207.941788,251.428101 211.254730,248.389221 214.500290,244.850555 
	C215.580566,243.672699 216.808899,240.974182 216.264893,240.248138 
	C213.832230,237.001480 216.311691,235.619781 217.876663,233.507935 
	C219.838425,230.860626 221.314758,227.853592 223.000610,225.001831 
	C233.510590,215.419250 243.760025,205.528168 254.618134,196.357788 
	C262.425232,189.764221 271.044678,184.132507 279.650879,178.037094 
z"/>
<path fill="#F39C0D" opacity="1.000000" stroke="none" 
	d="
M312.000000,168.000000 
	C313.185242,165.896866 313.859711,163.028061 315.650848,161.833191 
	C321.175354,158.147888 327.126160,155.101654 334.059601,151.153290 
	C331.332062,150.365707 329.901886,149.952744 328.236450,149.271271 
	C336.772949,144.683929 345.549805,140.375366 354.315399,136.044144 
	C373.476349,126.576370 394.204376,121.694321 414.358612,115.061211 
	C431.218414,109.512344 448.374451,106.522652 465.834167,105.100967 
	C485.145813,103.528496 504.584229,101.706451 523.889282,102.347183 
	C544.800476,103.041214 565.940369,104.895584 586.396973,109.090012 
	C609.355286,113.797379 631.957214,120.830956 654.146118,128.496780 
	C669.138000,133.676163 683.147644,141.698685 697.797546,148.726135 
	C696.510742,149.555130 695.022949,150.107452 692.341064,151.103104 
	C695.777405,153.230133 698.549377,155.029709 701.402588,156.689621 
	C704.558105,158.525406 707.989441,159.960602 710.901611,162.110657 
	C712.385315,163.206024 712.994568,165.485794 713.612549,167.569824 
	C707.419983,166.589081 701.668396,164.555725 695.795715,164.107300 
	C685.774109,163.342056 677.120117,159.405045 668.144043,155.377792 
	C660.743164,152.057281 652.317749,149.304703 644.332092,149.266068 
	C556.685486,148.842010 469.036041,148.995438 381.387390,149.029388 
	C379.422516,149.030151 377.456940,149.461395 375.493225,149.704269 
	C364.854462,151.020096 355.636597,156.045944 346.312927,160.823685 
	C344.560242,161.721832 342.685608,162.574677 340.770935,162.931549 
	C331.198273,164.715652 321.593475,166.327545 312.000000,168.000000 
z"/>
<path fill="#F4900D" opacity="1.000000" stroke="none" 
	d="
M222.655914,225.035187 
	C221.314758,227.853592 219.838425,230.860626 217.876663,233.507935 
	C216.311691,235.619781 213.832230,237.001480 216.264893,240.248138 
	C216.808899,240.974182 215.580566,243.672699 214.500290,244.850555 
	C211.254730,248.389221 207.941788,251.428101 207.541260,256.969757 
	C207.342880,259.714630 203.984772,262.231079 201.287674,265.894928 
	C204.112686,266.212952 205.927155,266.314270 207.700027,266.641113 
	C210.320282,267.124237 212.910950,267.767700 215.514221,268.342896 
	C214.708160,270.498871 213.960083,272.679077 213.072876,274.801117 
	C212.591339,275.952850 211.872955,277.005585 210.752869,279.015472 
	C237.439758,279.015472 263.298798,279.015472 289.584229,279.491638 
	C289.951263,297.313202 289.891876,314.658661 289.456787,332.056458 
	C283.427826,334.707458 277.790710,334.696533 272.099182,331.543335 
	C272.028290,327.159454 272.028290,323.236725 272.028290,319.319824 
	C267.024780,319.319824 262.649384,319.319824 257.830322,319.319824 
	C257.830322,323.760986 257.830322,327.882172 257.417847,332.014587 
	C250.729034,332.350494 244.454178,332.917267 238.176132,332.955261 
	C218.210678,333.076050 198.244003,333.018982 178.277863,332.987091 
	C172.881912,332.978455 171.978775,331.518890 174.128204,326.696381 
	C174.832611,325.115936 175.445496,323.494751 176.149506,321.771606 
	C171.418747,320.953857 167.319138,320.245239 162.877548,319.477509 
	C165.681458,311.881317 168.263748,305.353790 170.429153,298.690796 
	C170.972824,297.017944 170.178619,294.910278 169.999268,293.002441 
	C170.157349,292.033569 170.061905,290.922272 170.513580,290.118347 
	C174.185806,283.582428 177.960449,277.104004 181.853180,270.303406 
	C186.120056,265.412964 190.413361,260.969574 194.287979,256.186981 
	C196.536255,253.411850 197.647202,249.648834 200.077133,247.099869 
	C207.273453,239.551086 214.870758,232.384583 222.655914,225.035187 
z"/>
<path fill="#F4900D" opacity="1.000000" stroke="none" 
	d="
M741.895691,279.038940 
	C766.014526,279.038940 790.133362,279.038940 815.327026,279.038940 
	C814.100098,276.915558 813.180969,275.647339 812.598877,274.239716 
	C811.789307,272.282013 811.232361,270.219910 810.567200,268.202515 
	C812.886047,267.575317 815.174011,266.749786 817.533325,266.382629 
	C819.477112,266.080109 821.505432,266.320831 824.899170,266.320831 
	C822.843689,263.378235 821.672424,261.659607 820.450928,259.977478 
	C820.063293,259.443573 819.184204,259.040771 819.135132,258.520935 
	C818.500488,251.797882 814.012146,247.372803 809.899414,242.706421 
	C809.585876,242.350677 809.185425,241.604340 809.336121,241.374863 
	C813.284729,235.359924 807.066589,233.613480 804.770935,230.185333 
	C803.907043,228.895386 803.575134,227.249268 803.000366,225.383667 
	C804.121033,225.622894 805.472107,226.020432 806.327148,226.900055 
	C813.821594,234.609863 821.492371,242.175095 828.544373,250.276367 
	C831.909058,254.141724 833.877930,259.190643 836.815247,263.472839 
	C838.248352,265.562164 840.451904,267.123016 842.652161,268.960907 
	C845.328308,272.753571 847.658997,276.508362 849.722656,280.865723 
	C849.521423,282.732086 849.161621,284.246368 849.730896,285.214111 
	C851.668945,288.508820 853.983521,291.543549 852.237854,295.759674 
	C851.964966,296.418732 852.843933,297.578857 853.238708,298.486267 
	C855.594788,303.901947 857.952026,309.317230 860.335999,314.720673 
	C861.644226,317.685822 860.850952,318.944763 857.480591,319.070801 
	C854.367310,319.187256 851.277039,319.920044 847.706421,320.451355 
	C848.504150,322.550446 848.846252,323.459229 849.194519,324.365631 
	C849.987854,326.430389 850.784241,328.493988 851.579407,330.558075 
	C849.253906,331.038727 846.930786,331.922852 844.602539,331.936371 
	C825.320374,332.048676 806.035950,332.115448 786.755310,331.909210 
	C782.553833,331.864258 778.364624,330.668610 774.099243,329.544739 
	C774.028748,325.827057 774.028748,322.567566 774.028748,319.323669 
	C769.024109,319.323669 764.648193,319.323669 759.830322,319.323669 
	C759.830322,324.433411 759.830322,329.219177 759.454834,334.066681 
	C758.038086,336.869812 756.996826,339.611206 755.709717,343.000000 
	C754.454590,343.000000 752.639343,342.816620 750.874329,343.036224 
	C746.516785,343.578369 744.367188,342.298279 744.835388,337.406128 
	C744.966492,336.036652 743.113647,334.477325 742.100098,332.540894 
	C741.984741,314.397430 741.940247,296.718201 741.895691,279.038940 
z"/>
<path fill="#F4930D" opacity="1.000000" stroke="none" 
	d="
M732.956665,169.679474 
	C732.359619,169.547485 731.721680,169.094971 731.041870,168.322449 
	C731.638550,168.454620 732.277161,168.906799 732.956665,169.679474 
z"/>
<path fill="#F4930D" opacity="1.000000" stroke="none" 
	d="
M741.956665,175.679489 
	C741.359619,175.547485 740.721680,175.094971 740.041870,174.322449 
	C740.638550,174.454636 741.277100,174.906799 741.956665,175.679489 
z"/>
<path fill="#F4930D" opacity="1.000000" stroke="none" 
	d="
M744.956665,177.679474 
	C744.359619,177.547470 743.721680,177.094955 743.041870,176.322449 
	C743.638611,176.454620 744.277161,176.906784 744.956665,177.679474 
z"/>
<path fill="#EF660A" opacity="1.000000" stroke="none" 
	d="
M840.271973,755.802612 
	C835.174744,756.278687 831.217224,757.626831 828.150024,762.019470 
	C825.249329,766.173645 821.257935,769.132874 815.938904,770.865295 
	C811.652588,772.261292 808.323853,776.426575 804.353027,779.032227 
	C802.283142,780.390442 799.781799,781.773071 797.411743,781.893433 
	C705.714905,786.546692 613.953674,783.248901 522.222351,783.864624 
	C430.404053,784.481018 338.578339,784.045410 246.756088,783.910706 
	C239.681198,783.900330 232.579910,782.815979 225.554764,781.792419 
	C223.858475,781.545288 222.284134,779.687012 220.883316,778.332214 
	C216.802963,774.386108 212.509720,771.276733 206.821167,769.458191 
	C203.094086,768.266724 200.447220,763.927551 197.077026,761.306152 
	C194.866287,759.586609 192.228027,758.416870 189.391235,757.000427 
	C183.249924,749.154419 176.944534,741.649658 171.864975,733.390930 
	C161.892105,717.176636 152.429337,700.639526 143.103516,684.040466 
	C138.682846,676.172058 135.062958,667.853638 131.400360,659.411621 
	C132.164917,659.296448 132.893173,659.406921 133.011642,659.736511 
	C135.028915,665.348022 138.268509,669.933655 143.473282,673.077271 
	C144.371170,673.619629 144.904358,674.885010 145.428207,675.907532 
	C148.255875,681.427002 152.371155,684.551636 158.940002,684.112976 
	C160.678696,683.996887 163.042786,684.759888 164.201920,685.986511 
	C168.245972,690.265930 172.206436,694.702515 175.573303,699.516724 
	C177.904846,702.850586 180.843597,703.936401 184.429047,703.965637 
	C195.417084,704.055359 206.407272,703.917175 217.394547,704.045715 
	C220.885544,704.086548 221.784653,702.622375 222.191330,699.318237 
	C222.464722,697.097107 224.555679,695.099792 225.902710,693.465820 
	C225.971939,699.192139 225.971939,704.455017 225.971939,709.782471 
	C227.262680,709.889526 227.907593,709.990479 228.552399,709.989807 
	C276.347015,709.939758 324.014862,712.093689 371.483917,717.953064 
	C402.964752,721.838989 434.072937,727.471436 464.527161,736.532227 
	C471.536438,738.617676 477.538574,741.856018 483.091858,746.650879 
	C486.456390,749.555908 490.936066,752.267212 495.202454,752.812012 
	C505.531219,754.130920 516.027039,754.511292 526.458435,754.553467 
	C536.992493,754.596069 545.950317,750.600830 553.683228,743.052795 
	C556.795837,740.014587 561.680542,738.424866 566.038269,737.085693 
	C612.486572,722.811523 660.346924,716.463684 708.597900,713.282227 
	C740.135620,711.202698 771.798889,711.027771 803.405518,709.987122 
	C804.184753,709.961426 804.959229,709.787109 806.167603,709.623718 
	C806.167603,691.923950 806.167603,674.464417 806.526611,657.055054 
	C810.239319,658.070068 813.578552,659.805237 816.949219,659.868469 
	C832.717773,660.164673 848.500061,659.766296 864.266541,660.113098 
	C870.728577,660.255188 874.759277,657.254517 877.318604,652.080444 
	C879.137878,648.402466 881.669495,646.918640 885.494141,647.002380 
	C889.935242,647.099609 892.722107,644.898743 893.916992,640.733276 
	C894.974915,637.045471 897.064270,634.590088 901.000000,634.002441 
	C896.582153,647.843872 893.758057,662.473450 887.390442,675.350647 
	C876.549072,697.274963 863.487610,718.101990 851.330750,739.373962 
	C850.355713,741.080017 849.163391,742.661865 848.037231,744.650574 
	C845.517090,748.534058 843.031738,752.068359 840.271973,755.802612 
z"/>
<path fill="#F0740A" opacity="1.000000" stroke="none" 
	d="
M901.043945,633.619690 
	C897.064270,634.590088 894.974915,637.045471 893.916992,640.733276 
	C892.722107,644.898743 889.935242,647.099609 885.494141,647.002380 
	C881.669495,646.918640 879.137878,648.402466 877.318604,652.080444 
	C874.759277,657.254517 870.728577,660.255188 864.266541,660.113098 
	C848.500061,659.766296 832.717773,660.164673 816.949219,659.868469 
	C813.578552,659.805237 810.239319,658.070068 806.453857,656.591003 
	C806.014587,652.092224 806.006348,648.107544 805.999390,644.122925 
	C805.945496,613.079285 805.891907,582.035706 805.905640,550.528198 
	C806.036743,539.710876 806.100403,529.357483 806.521606,519.053650 
	C810.459351,520.068848 814.012878,521.728027 817.624939,521.867065 
	C827.597351,522.251160 837.594238,522.000000 847.581421,522.000000 
	C864.559692,522.000000 881.537964,522.024048 898.516174,521.988892 
	C905.979736,521.973389 907.041138,520.846008 908.124207,513.673950 
	C908.333984,512.284973 909.808350,510.552429 911.134521,509.971497 
	C914.480042,508.505951 916.018311,506.263916 916.050171,502.673126 
	C916.061096,501.446045 916.666321,500.224213 917.000000,499.000000 
	C917.637268,502.512909 918.581787,506.002136 918.854675,509.543152 
	C919.706055,520.591492 920.802002,531.657288 920.849792,542.720398 
	C920.891846,552.447266 919.955505,562.214600 918.847290,571.894958 
	C918.292114,576.744507 916.390259,581.439880 915.048767,586.601318 
	C913.081726,594.817810 911.474609,602.731750 909.157532,610.432007 
	C906.836731,618.144714 903.806946,625.644043 901.043945,633.619690 
z"/>
<path fill="#EF6D0A" opacity="1.000000" stroke="none" 
	d="
M225.833481,693.002380 
	C224.555679,695.099792 222.464722,697.097107 222.191330,699.318237 
	C221.784653,702.622375 220.885544,704.086548 217.394547,704.045715 
	C206.407272,703.917175 195.417084,704.055359 184.429047,703.965637 
	C180.843597,703.936401 177.904846,702.850586 175.573303,699.516724 
	C172.206436,694.702515 168.245972,690.265930 164.201920,685.986511 
	C163.042786,684.759888 160.678696,683.996887 158.940002,684.112976 
	C152.371155,684.551636 148.255875,681.427002 145.428207,675.907532 
	C144.904358,674.885010 144.371170,673.619629 143.473282,673.077271 
	C138.268509,669.933655 135.028915,665.348022 133.011642,659.736511 
	C132.893173,659.406921 132.164917,659.296448 131.361740,659.043213 
	C128.100388,651.560181 125.197723,644.117920 122.147087,636.336609 
	C120.946663,630.678284 119.813156,625.373535 118.859657,620.036621 
	C117.182869,610.651245 115.616135,601.246216 114.365364,591.494568 
	C117.522903,596.387390 120.269928,601.661987 123.153015,606.861084 
	C123.760376,607.956360 124.734177,609.398804 125.765289,609.618286 
	C131.879868,610.919067 138.046860,612.745117 144.222366,612.849670 
	C166.695663,613.230286 189.180328,613.112000 211.658249,612.909363 
	C216.387024,612.866821 221.105362,611.668701 225.896713,611.467163 
	C225.921112,638.954956 225.877304,665.978638 225.833481,693.002380 
z"/>
<path fill="#F2800B" opacity="1.000000" stroke="none" 
	d="
M917.010010,498.577118 
	C916.666321,500.224213 916.061096,501.446045 916.050171,502.673126 
	C916.018311,506.263916 914.480042,508.505951 911.134521,509.971497 
	C909.808350,510.552429 908.333984,512.284973 908.124207,513.673950 
	C907.041138,520.846008 905.979736,521.973389 898.516174,521.988892 
	C881.537964,522.024048 864.559692,522.000000 847.581421,522.000000 
	C837.594238,522.000000 827.597351,522.251160 817.624939,521.867065 
	C814.012878,521.728027 810.459351,520.068848 806.448364,518.589722 
	C806.067444,483.051971 806.117371,448.027771 806.519836,413.079590 
	C808.665649,414.103180 810.452942,415.862518 812.253113,415.875793 
	C836.818359,416.057129 861.385376,415.990814 885.951965,416.003510 
	C889.238586,416.005188 890.447021,414.610138 889.642151,411.306488 
	C888.071533,404.859131 888.283813,404.514099 895.003357,404.045349 
	C898.325378,403.813629 899.077637,402.531830 898.752747,399.253906 
	C898.486755,396.570068 899.533020,393.756226 899.997559,391.000000 
	C903.279419,397.326050 906.563416,403.651001 909.841003,409.979279 
	C910.334900,410.932983 910.799194,411.902039 911.637329,412.932007 
	C913.055359,420.327118 914.238647,427.638885 915.138611,434.985352 
	C916.218506,443.800903 917.441467,452.626373 917.894287,461.483765 
	C918.367676,470.744171 918.077148,480.048584 917.955017,489.331604 
	C917.916260,492.276062 917.346619,495.213562 917.010010,498.577118 
z"/>
<path fill="#F38A0C" opacity="1.000000" stroke="none" 
	d="
M899.954102,390.616058 
	C899.533020,393.756226 898.486755,396.570068 898.752747,399.253906 
	C899.077637,402.531830 898.325378,403.813629 895.003357,404.045349 
	C888.283813,404.514099 888.071533,404.859131 889.642151,411.306488 
	C890.447021,414.610138 889.238586,416.005188 885.951965,416.003510 
	C861.385376,415.990814 836.818359,416.057129 812.253113,415.875793 
	C810.452942,415.862518 808.665649,414.103180 806.447998,412.615479 
	C806.023682,395.161652 806.023682,378.247955 806.023682,361.332703 
	C801.021423,361.332703 796.636536,361.332703 791.832947,361.332703 
	C791.832947,383.781128 791.832947,405.893402 791.475708,428.057617 
	C789.636780,430.801361 788.155029,433.493225 786.401367,436.679016 
	C784.340393,436.679016 781.471436,436.679016 778.602478,436.679016 
	C778.900818,436.360962 779.199158,436.042938 779.497498,435.724884 
	C777.720276,433.151733 775.943054,430.578552 774.093201,427.541443 
	C774.070251,394.719299 774.120056,362.361115 774.169800,330.002930 
	C778.364624,330.668610 782.553833,331.864258 786.755310,331.909210 
	C806.035950,332.115448 825.320374,332.048676 844.602539,331.936371 
	C846.930786,331.922852 849.253906,331.038727 851.579407,330.558075 
	C850.784241,328.493988 849.987854,326.430389 849.194519,324.365631 
	C848.846252,323.459229 848.504150,322.550446 847.706421,320.451355 
	C851.277039,319.920044 854.367310,319.187256 857.480591,319.070801 
	C860.850952,318.944763 861.644226,317.685822 860.335999,314.720673 
	C857.952026,309.317230 855.594788,303.901947 853.238708,298.486267 
	C852.843933,297.578857 851.964966,296.418732 852.237854,295.759674 
	C853.983521,291.543549 851.668945,288.508820 849.730896,285.214111 
	C849.161621,284.246368 849.521423,282.732086 849.726562,281.235474 
	C867.531738,307.150482 881.941467,334.935211 892.861755,364.447723 
	C895.941956,372.772217 897.600159,381.622833 899.954102,390.616058 
z"/>
<path fill="#F3890C" opacity="1.000000" stroke="none" 
	d="
M169.658859,293.051727 
	C170.178619,294.910278 170.972824,297.017944 170.429153,298.690796 
	C168.263748,305.353790 165.681458,311.881317 162.877548,319.477509 
	C167.319138,320.245239 171.418747,320.953857 176.149506,321.771606 
	C175.445496,323.494751 174.832611,325.115936 174.128204,326.696381 
	C171.978775,331.518890 172.881912,332.978455 178.277863,332.987091 
	C198.244003,333.018982 218.210678,333.076050 238.176132,332.955261 
	C244.454178,332.917267 250.729034,332.350494 257.485779,332.478668 
	C257.922546,369.290039 257.878815,405.648468 257.469421,442.100159 
	C256.735443,443.360504 256.045380,444.530212 256.054626,445.694336 
	C256.094238,450.661530 252.949112,451.081848 249.116058,451.041199 
	C245.433395,451.002136 242.087372,450.998932 241.917511,445.930969 
	C241.873047,444.604218 240.778427,443.312714 240.093079,441.541016 
	C240.020050,414.504913 240.020050,387.932831 240.020050,361.318665 
	C235.049423,361.318665 230.663208,361.318665 225.832687,361.318665 
	C225.832687,376.761597 225.832687,391.882050 225.464050,407.100159 
	C224.774033,407.556091 224.137253,407.955353 224.177719,408.266541 
	C225.046173,414.946411 220.999695,415.110748 215.967926,415.075775 
	C191.719406,414.907379 167.469101,415.000000 143.219421,415.000000 
	C141.292755,415.000000 139.366089,415.000000 137.321838,415.000000 
	C137.224915,413.262787 136.996231,412.260742 137.144150,411.317749 
	C138.183609,404.690857 138.220001,404.538391 131.668900,404.052338 
	C127.999832,403.780121 127.306381,401.348175 128.169495,398.935944 
	C129.406006,395.480133 127.997482,393.289886 126.001259,391.001221 
	C126.627617,388.271088 127.257484,385.541748 127.879768,382.810699 
	C133.690918,357.306976 144.996201,334.092224 157.770340,311.519684 
	C161.335739,305.219421 165.453873,299.231964 169.658859,293.051727 
z"/>
<path fill="#F2820B" opacity="1.000000" stroke="none" 
	d="
M125.650742,391.055359 
	C127.997482,393.289886 129.406006,395.480133 128.169495,398.935944 
	C127.306381,401.348175 127.999832,403.780121 131.668900,404.052338 
	C138.220001,404.538391 138.183609,404.690857 137.144150,411.317749 
	C136.996231,412.260742 137.224915,413.262787 137.321838,415.000000 
	C139.366089,415.000000 141.292755,415.000000 143.219421,415.000000 
	C167.469101,415.000000 191.719406,414.907379 215.967926,415.075775 
	C220.999695,415.110748 225.046173,414.946411 224.177719,408.266541 
	C224.137253,407.955353 224.774033,407.556091 225.532654,407.564270 
	C225.924774,429.954376 225.879654,451.978058 225.458771,474.059814 
	C223.082062,474.745270 221.083115,475.911743 219.079819,475.919250 
	C188.290604,476.034882 157.500671,476.034424 126.711525,475.909210 
	C124.943253,475.902008 122.148590,475.046600 121.600975,473.805328 
	C119.666061,469.419617 117.930641,465.100250 115.444412,460.860016 
	C113.177124,456.993164 114.079514,451.099274 114.101181,446.101074 
	C114.128784,439.733276 114.675728,433.367737 114.998779,427.001221 
	C115.993683,420.269592 116.988579,413.537994 117.990982,406.402588 
	C119.348953,402.762085 120.595345,399.476318 122.089890,396.307556 
	C122.953133,394.477295 124.216782,392.835876 125.650742,391.055359 
z"/>
<path fill="#F0750A" opacity="1.000000" stroke="none" 
	d="
M225.828522,611.003052 
	C221.105362,611.668701 216.387024,612.866821 211.658249,612.909363 
	C189.180328,613.112000 166.695663,613.230286 144.222366,612.849670 
	C138.046860,612.745117 131.879868,610.919067 125.765289,609.618286 
	C124.734177,609.398804 123.760376,607.956360 123.153015,606.861084 
	C120.269928,601.661987 117.522903,596.387390 114.364616,591.069824 
	C111.911217,581.869446 109.536835,572.791870 107.820358,563.591553 
	C106.462257,556.312073 105.626259,548.903198 105.076843,541.513245 
	C104.426323,532.763367 104.374550,523.970154 103.962120,515.200500 
	C103.877670,513.404907 103.345566,511.630341 103.009140,509.423035 
	C103.802963,508.750183 104.607452,508.500336 106.041809,508.311707 
	C107.092125,509.062622 107.701920,509.701416 107.902885,510.450012 
	C109.431267,516.143616 110.760048,521.894348 112.447792,527.538574 
	C112.812653,528.758667 114.219292,530.210327 115.422310,530.536499 
	C119.266907,531.578796 120.293526,534.013672 120.030342,537.624878 
	C119.755333,541.398376 121.717705,543.022461 125.451057,543.018311 
	C156.702698,542.983459 187.954544,542.957092 219.205917,543.054199 
	C222.980057,543.065918 224.181564,541.560303 224.103195,537.990845 
	C224.074295,536.674622 225.225021,535.332458 225.907867,534.464966 
	C226.039581,540.282349 226.101135,545.636902 226.088806,551.455444 
	C225.952774,571.613953 225.890640,591.308533 225.828522,611.003052 
z"/>
<path fill="#F17C0B" opacity="1.000000" stroke="none" 
	d="
M225.837708,534.002136 
	C225.225021,535.332458 224.074295,536.674622 224.103195,537.990845 
	C224.181564,541.560303 222.980057,543.065918 219.205917,543.054199 
	C187.954544,542.957092 156.702698,542.983459 125.451057,543.018311 
	C121.717705,543.022461 119.755333,541.398376 120.030342,537.624878 
	C120.293526,534.013672 119.266907,531.578796 115.422310,530.536499 
	C114.219292,530.210327 112.812653,528.758667 112.447792,527.538574 
	C110.760048,521.894348 109.431267,516.143616 107.902885,510.450012 
	C107.701920,509.701416 107.092125,509.062622 106.337097,508.186462 
	C106.333466,498.912933 107.550667,489.752197 106.803055,480.754761 
	C105.426559,464.188629 109.714981,448.422577 112.070297,432.373535 
	C112.336670,430.558441 113.513084,428.876923 114.633148,427.067322 
	C114.675728,433.367737 114.128784,439.733276 114.101181,446.101074 
	C114.079514,451.099274 113.177124,456.993164 115.444412,460.860016 
	C117.930641,465.100250 119.666061,469.419617 121.600975,473.805328 
	C122.148590,475.046600 124.943253,475.902008 126.711525,475.909210 
	C157.500671,476.034424 188.290604,476.034882 219.079819,475.919250 
	C221.083115,475.911743 223.082062,474.745270 225.528534,474.523804 
	C225.928589,494.620514 225.883148,514.311340 225.837708,534.002136 
z"/>
<path fill="#F6990D" opacity="1.000000" stroke="none" 
	d="
M311.695343,168.148849 
	C321.593475,166.327545 331.198273,164.715652 340.770935,162.931549 
	C342.685608,162.574677 344.560242,161.721832 346.312927,160.823685 
	C355.636597,156.045944 364.854462,151.020096 375.493225,149.704269 
	C377.456940,149.461395 379.422516,149.030151 381.387390,149.029388 
	C469.036041,148.995438 556.685486,148.842010 644.332092,149.266068 
	C652.317749,149.304703 660.743164,152.057281 668.144043,155.377792 
	C677.120117,159.405045 685.774109,163.342056 695.795715,164.107300 
	C701.668396,164.555725 707.419983,166.589081 713.613037,167.954742 
	C720.035889,171.991104 726.071777,175.982224 732.107666,179.973343 
	C732.000427,180.606552 731.893250,181.239761 731.786011,181.872986 
	C727.412659,182.433044 723.039246,182.993118 717.999939,183.638458 
	C727.798401,192.565491 737.290894,201.213791 747.587585,210.594696 
	C590.842529,210.594696 435.242493,210.594696 278.380951,210.594696 
	C288.648071,201.291748 298.113129,192.715546 308.151825,183.619568 
	C303.279388,183.070633 298.874115,182.574341 294.468842,182.078033 
	C294.232117,181.470703 293.995392,180.863373 293.758667,180.256027 
	C299.635986,176.269913 305.513336,172.283798 311.695343,168.148849 
z"/>
<path fill="#F5940D" opacity="1.000000" stroke="none" 
	d="
M788.532715,227.000000 
	C792.456909,230.826508 795.913818,234.653000 800.104187,239.291306 
	C794.920410,239.933945 791.156067,240.400604 786.000183,241.039780 
	C789.093323,244.369781 791.317749,246.511688 793.209045,248.915741 
	C794.056091,249.992416 795.015076,252.097809 794.535645,252.840698 
	C793.808655,253.967010 791.927795,254.527222 790.430176,254.922241 
	C789.183289,255.251114 787.782410,254.999512 786.449768,254.999512 
	C604.203369,255.000015 421.956940,255.008423 239.710571,254.921417 
	C236.918610,254.920090 234.127197,253.739609 231.335541,253.109406 
	C232.805817,250.657440 234.195190,248.151520 235.779938,245.775940 
	C236.592560,244.557861 237.754272,243.572647 239.932098,241.207230 
	C235.017044,240.504181 231.213974,239.960190 226.096069,239.228134 
	C229.923401,234.853668 233.192352,231.117401 236.730652,227.190567 
	C242.223495,227.000000 247.446991,227.000000 252.670471,227.000000 
	C252.807999,227.439667 252.945526,227.879349 253.083054,228.319016 
	C250.253555,231.280792 247.424057,234.242554 244.594559,237.204315 
	C244.803329,237.598373 245.012100,237.992416 245.220871,238.386475 
	C423.673218,238.386475 602.125549,238.386475 782.259705,238.386475 
	C778.623230,234.449310 775.853638,231.450729 773.084045,228.452148 
	C773.105957,227.968094 773.127808,227.484055 773.149658,227.000000 
	C778.121582,227.000000 783.093567,227.000000 788.532715,227.000000 
z"/>
<path fill="#FBFBFB" opacity="1.000000" stroke="none" 
	d="
M741.532166,279.018188 
	C741.940247,296.718201 741.984741,314.397430 742.033020,333.004944 
	C742.080078,372.957275 742.123352,411.981354 742.098633,451.469421 
	C741.964478,484.953705 741.898254,517.973999 741.449585,550.886841 
	C740.711365,549.248108 740.080872,547.722595 740.048828,546.184631 
	C739.927490,540.354858 740.004761,534.520935 739.998718,528.688599 
	C739.991394,521.547119 739.455017,521.002075 732.334961,521.001709 
	C676.510864,520.998596 620.686829,521.000000 564.862732,521.000000 
	C552.698059,521.000000 540.531555,521.124329 528.369751,520.938232 
	C523.580750,520.864929 521.784790,522.794556 521.944580,527.487183 
	C522.165710,533.978577 522.102112,540.486084 521.916870,546.979675 
	C521.878235,548.333557 520.777527,549.657043 520.098633,550.530579 
	C519.965576,528.379456 519.900208,506.692383 519.907471,484.541321 
	C519.945740,441.720062 519.911316,399.362762 520.038452,356.694458 
	C522.589478,353.014984 524.643311,349.335205 527.428345,346.333893 
	C537.507629,335.471771 550.236816,328.153534 563.018250,321.125061 
	C581.602966,310.905365 601.372559,303.415039 621.580383,297.021515 
	C644.584595,289.743286 668.199585,285.393005 691.997009,281.843933 
	C697.731079,281.295135 703.465149,280.746368 709.933167,280.131287 
	C711.110657,279.996063 711.554138,279.927155 711.997681,279.858246 
	C717.053833,279.626312 722.110046,279.394409 728.037231,279.124573 
	C732.271362,278.999725 735.634399,278.912811 738.997498,278.825897 
	C739.721191,278.883087 740.444946,278.940247 741.532166,279.018188 
z"/>
<path fill="#FDFDFC" opacity="1.000000" stroke="none" 
	d="
M289.832458,332.004089 
	C289.891876,314.658661 289.951263,297.313202 290.059570,279.504028 
	C290.835175,279.016144 291.561859,278.991974 293.098206,278.973389 
	C297.271393,278.968231 300.634949,278.957489 303.998505,278.946747 
	C309.027740,279.292267 314.056946,279.637817 319.871399,280.009583 
	C321.104034,280.006653 321.551514,279.977478 321.998962,279.948303 
	C327.709534,280.622589 333.420074,281.296906 339.970032,282.011230 
	C353.400970,284.361450 366.058899,286.361603 378.571411,289.040802 
	C414.103180,296.648926 447.990295,308.716705 479.281342,327.460785 
	C492.101135,335.140167 504.313263,343.587402 511.997803,357.470642 
	C512.001099,371.892670 511.983307,385.846222 512.003845,399.799713 
	C512.045593,428.201141 512.108093,456.602600 512.093140,485.436920 
	C511.961761,487.911011 511.899200,489.952240 511.460999,491.937592 
	C508.415771,491.254517 505.747009,490.083496 503.076508,490.079498 
	C435.606049,489.978485 368.135315,489.970215 300.664917,490.084900 
	C297.164062,490.090851 293.665344,491.329834 290.097717,491.530823 
	C289.965454,473.712646 289.901031,456.358459 289.909790,438.540466 
	C289.932800,402.719116 289.882629,367.361603 289.832458,332.004089 
z"/>
<path fill="#F4900D" opacity="1.000000" stroke="none" 
	d="
M511.994080,357.002106 
	C504.313263,343.587402 492.101135,335.140167 479.281342,327.460785 
	C447.990295,308.716705 414.103180,296.648926 378.571411,289.040802 
	C366.058899,286.361603 353.400970,284.361450 340.405975,281.949219 
	C342.949890,280.900085 345.872955,279.863586 348.857452,279.053009 
	C349.942963,278.758179 351.174774,279.000275 352.339844,279.000244 
	C461.524872,279.000000 570.709900,278.977844 679.894836,279.088837 
	C683.866333,279.092865 687.836487,280.404419 691.902161,281.475281 
	C668.199585,285.393005 644.584595,289.743286 621.580383,297.021515 
	C601.372559,303.415039 581.602966,310.905365 563.018250,321.125061 
	C550.236816,328.153534 537.507629,335.471771 527.428345,346.333893 
	C524.643311,349.335205 522.589478,353.014984 519.702759,356.733154 
	C516.773438,359.572449 514.388245,357.884674 511.994080,357.002106 
z"/>
<path fill="#F4900D" opacity="1.000000" stroke="none" 
	d="
M303.905762,278.560425 
	C300.634949,278.957489 297.271393,278.968231 293.455078,278.903961 
	C296.418243,275.512726 300.106110,276.686157 303.905762,278.560425 
z"/>
<path fill="#F4900D" opacity="1.000000" stroke="none" 
	d="
M738.892456,278.449280 
	C735.634399,278.912811 732.271362,278.999725 728.454834,279.014587 
	C731.328125,275.321289 735.071350,276.865204 738.892456,278.449280 
z"/>
<path fill="#F4900D" opacity="1.000000" stroke="none" 
	d="
M321.960632,279.659271 
	C321.551514,279.977478 321.104034,280.006653 320.329376,279.948730 
	C320.332977,279.379120 320.663788,278.896576 320.994598,278.414062 
	C321.303833,278.732788 321.613068,279.051514 321.960632,279.659271 
z"/>
<path fill="#F4900D" opacity="1.000000" stroke="none" 
	d="
M711.952332,279.572205 
	C711.554138,279.927155 711.110657,279.996063 710.334106,280.004517 
	C710.306213,279.435242 710.611389,278.926453 710.916565,278.417664 
	C711.246704,278.707153 711.576843,278.996643 711.952332,279.572205 
z"/>
<path fill="#FCFCFC" opacity="1.000000" stroke="none" 
	d="
M257.835083,442.006927 
	C257.878815,405.648468 257.922546,369.290039 257.898285,332.467468 
	C257.830322,327.882172 257.830322,323.760986 257.830322,319.319824 
	C262.649384,319.319824 267.024780,319.319824 272.028290,319.319824 
	C272.028290,323.236725 272.028290,327.159454 272.031342,332.007324 
	C272.077911,368.289764 272.121429,403.647003 272.096558,439.468262 
	C271.963654,467.285248 271.899109,494.638184 271.467255,521.943176 
	C266.766083,518.979919 262.461884,520.046631 258.097443,521.527588 
	C257.965454,494.711456 257.900269,468.359192 257.835083,442.006927 
z"/>
<path fill="#F3880C" opacity="1.000000" stroke="none" 
	d="
M272.164978,439.004272 
	C272.121429,403.647003 272.077911,368.289764 272.102234,332.468506 
	C277.790710,334.696533 283.427826,334.707458 289.456757,332.056458 
	C289.882629,367.361603 289.932800,402.719116 289.552002,438.589600 
	C286.186249,442.057556 282.467468,442.638611 278.684570,441.893280 
	C276.409943,441.445099 274.331543,440.000854 272.164978,439.004272 
z"/>
<path fill="#FCFCFC" opacity="1.000000" stroke="none" 
	d="
M774.099304,329.544739 
	C774.120056,362.361115 774.070251,394.719299 774.025269,428.005432 
	C773.964966,459.952545 773.899902,490.971710 773.467529,521.943115 
	C768.766479,518.980347 764.462158,520.046387 760.097778,521.527588 
	C759.965637,497.711029 759.900208,474.358368 759.907776,450.541718 
	C759.930603,411.386841 759.880493,372.695892 759.830322,334.004974 
	C759.830322,329.219177 759.830322,324.433411 759.830322,319.323669 
	C764.648193,319.323669 769.024109,319.323669 774.028748,319.323669 
	C774.028748,322.567566 774.028748,325.827057 774.099304,329.544739 
z"/>
<path fill="#F3870C" opacity="1.000000" stroke="none" 
	d="
M759.454834,334.066681 
	C759.880493,372.695892 759.930603,411.386841 759.546631,450.620758 
	C758.052246,454.299988 756.992004,457.436188 755.935059,460.562775 
	C752.497986,460.562775 748.937805,460.562775 746.579895,460.562775 
	C744.858459,456.834717 743.512573,453.920074 742.166687,451.005463 
	C742.123352,411.981354 742.080078,372.957275 742.103821,333.469116 
	C743.113647,334.477325 744.966492,336.036652 744.835388,337.406128 
	C744.367188,342.298279 746.516785,343.578369 750.874329,343.036224 
	C752.639343,342.816620 754.454590,343.000000 755.709717,343.000000 
	C756.996826,339.611206 758.038086,336.869812 759.454834,334.066681 
z"/>
<path fill="#F5F4F4" opacity="1.000000" stroke="none" 
	d="
M225.896729,611.467163 
	C225.890640,591.308533 225.952774,571.613953 226.471832,551.350403 
	C227.286011,549.260132 227.920761,547.744446 227.951523,546.216614 
	C228.071671,540.250000 228.055420,534.278992 227.980392,528.310913 
	C227.934799,524.685059 228.504395,521.245483 232.899887,521.166992 
	C237.282715,521.088806 238.060608,524.417847 238.018890,528.106934 
	C237.947647,534.406677 237.895279,540.710938 238.082962,547.005920 
	C238.123047,548.350525 239.222458,549.663635 239.906952,551.455322 
	C240.042969,566.948364 240.105896,581.977234 240.101929,597.470154 
	C240.035019,629.522156 240.035019,661.110168 240.035019,692.671265 
	C241.081528,692.838379 241.557358,692.974426 242.035248,692.982117 
	C280.994049,693.610657 319.826416,695.917908 358.505981,700.861755 
	C388.338531,704.674866 417.898682,709.795044 446.767548,718.275024 
	C461.209686,722.517273 476.430206,725.794250 488.390564,735.403137 
	C500.336792,745.000732 513.450989,744.865234 527.138794,743.228027 
	C530.636047,742.809631 534.571899,741.665344 537.248779,739.529358 
	C549.912598,729.424316 564.850647,724.535645 579.945190,719.890442 
	C610.645508,710.442749 642.054626,704.307617 673.951538,700.997314 
	C701.231384,698.166077 728.596924,696.113525 755.950439,694.061829 
	C767.837952,693.170166 779.790405,693.143494 791.831421,692.719727 
	C791.831421,657.258118 791.831421,622.132507 791.902649,586.542603 
	C792.038269,574.383179 792.102661,562.687988 792.549805,550.885864 
	C793.288391,549.257507 793.923035,547.741211 793.951294,546.213623 
	C794.067749,539.919495 794.170410,533.615540 793.937622,527.327820 
	C793.792908,523.419067 795.284363,521.080750 799.150574,521.148865 
	C802.718445,521.211731 804.190369,523.432068 804.062073,527.134766 
	C803.838379,533.589050 803.887024,540.060181 804.083801,546.516235 
	C804.129761,548.024597 805.225464,549.500977 805.838196,550.992065 
	C805.891907,582.035706 805.945496,613.079285 805.999390,644.122925 
	C806.006348,648.107544 806.014587,652.092224 806.094849,656.540894 
	C806.167603,674.464417 806.167603,691.923950 806.167603,709.623718 
	C804.959229,709.787109 804.184753,709.961426 803.405518,709.987122 
	C771.798889,711.027771 740.135620,711.202698 708.597900,713.282227 
	C660.346924,716.463684 612.486572,722.811523 566.038269,737.085693 
	C561.680542,738.424866 556.795837,740.014587 553.683228,743.052795 
	C545.950317,750.600830 536.992493,754.596069 526.458435,754.553467 
	C516.027039,754.511292 505.531219,754.130920 495.202454,752.812012 
	C490.936066,752.267212 486.456390,749.555908 483.091858,746.650879 
	C477.538574,741.856018 471.536438,738.617676 464.527161,736.532227 
	C434.072937,727.471436 402.964752,721.838989 371.483917,717.953064 
	C324.014862,712.093689 276.347015,709.939758 228.552399,709.989807 
	C227.907593,709.990479 227.262680,709.889526 225.971939,709.782471 
	C225.971939,704.455017 225.971939,699.192139 225.902710,693.465820 
	C225.877304,665.978638 225.921112,638.954956 225.896729,611.467163 
z"/>
<path fill="#FBFBFB" opacity="1.000000" stroke="none" 
	d="
M805.905640,550.528198 
	C805.225464,549.500977 804.129761,548.024597 804.083801,546.516235 
	C803.887024,540.060181 803.838379,533.589050 804.062073,527.134766 
	C804.190369,523.432068 802.718445,521.211731 799.150574,521.148865 
	C795.284363,521.080750 793.792908,523.419067 793.937622,527.327820 
	C794.170410,533.615540 794.067749,539.919495 793.951294,546.213623 
	C793.923035,547.741211 793.288391,549.257507 792.483521,550.421814 
	C792.026123,544.251892 792.018860,538.439148 792.009155,532.626404 
	C791.950745,497.752838 791.891724,462.879242 791.832947,428.005676 
	C791.832947,405.893402 791.832947,383.781128 791.832947,361.332703 
	C796.636536,361.332703 801.021423,361.332703 806.023682,361.332703 
	C806.023682,378.247955 806.023682,395.161652 806.095459,412.539490 
	C806.117371,448.027771 806.067444,483.051971 806.090820,518.540100 
	C806.100403,529.357483 806.036743,539.710876 805.905640,550.528198 
z"/>
<path fill="#F17C0B" opacity="1.000000" stroke="none" 
	d="
M791.475708,428.057617 
	C791.891724,462.879242 791.950745,497.752838 792.009155,532.626404 
	C792.018860,538.439148 792.026123,544.251892 792.100830,550.528687 
	C792.102661,562.687988 792.038269,574.383179 791.545166,586.591064 
	C788.184692,590.063904 784.464722,590.635254 780.684509,589.893066 
	C778.410950,589.446594 776.333374,588.001648 774.096313,586.541321 
	C773.961487,564.715088 773.898132,543.353027 773.834839,521.990906 
	C773.899902,490.971710 773.964966,459.952545 774.098022,428.469360 
	C775.943054,430.578552 777.720276,433.151733 779.497498,435.724884 
	C779.199158,436.042938 778.900818,436.360962 778.602478,436.679016 
	C781.471436,436.679016 784.340393,436.679016 786.401367,436.679016 
	C788.155029,433.493225 789.636780,430.801361 791.475708,428.057617 
z"/>
<path fill="#F17A0B" opacity="1.000000" stroke="none" 
	d="
M240.168823,597.006165 
	C240.105896,581.977234 240.042969,566.948364 239.973480,550.991394 
	C239.975250,546.411316 239.985077,542.759338 239.991684,539.107300 
	C240.050140,506.739868 240.108047,474.372437 240.166092,442.005005 
	C240.778427,443.312714 241.873047,444.604218 241.917511,445.930969 
	C242.087372,450.998932 245.433395,451.002136 249.116058,451.041199 
	C252.949112,451.081848 256.094238,450.661530 256.054626,445.694336 
	C256.045380,444.530212 256.735443,443.360504 257.469421,442.100159 
	C257.900269,468.359192 257.965454,494.711456 258.023956,521.991821 
	C257.955536,547.615173 257.893829,572.310486 257.491943,597.072327 
	C254.824371,600.726501 251.284790,601.859497 247.461792,600.872375 
	C244.870789,600.203308 242.588928,598.337036 240.168823,597.006165 
z"/>
<path fill="#FBFBFB" opacity="1.000000" stroke="none" 
	d="
M240.093079,441.541016 
	C240.108047,474.372437 240.050140,506.739868 239.991684,539.107300 
	C239.985077,542.759338 239.975250,546.411316 239.900375,550.527283 
	C239.222458,549.663635 238.123047,548.350525 238.082962,547.005920 
	C237.895279,540.710938 237.947647,534.406677 238.018890,528.106934 
	C238.060608,524.417847 237.282715,521.088806 232.899887,521.166992 
	C228.504395,521.245483 227.934799,524.685059 227.980392,528.310913 
	C228.055420,534.278992 228.071671,540.250000 227.951523,546.216614 
	C227.920761,547.744446 227.286011,549.260132 226.545715,550.886414 
	C226.101135,545.636902 226.039581,540.282349 225.907867,534.464966 
	C225.883148,514.311340 225.928589,494.620514 225.904282,474.465729 
	C225.879654,451.978058 225.924774,429.954376 225.901306,407.466614 
	C225.832687,391.882050 225.832687,376.761597 225.832687,361.318665 
	C230.663208,361.318665 235.049423,361.318665 240.020050,361.318665 
	C240.020050,387.932831 240.020050,414.504913 240.093079,441.541016 
z"/>
<path fill="#F5F5F5" opacity="1.000000" stroke="none" 
	d="
M520.166321,550.994568 
	C520.777527,549.657043 521.878235,548.333557 521.916870,546.979675 
	C522.102112,540.486084 522.165710,533.978577 521.944580,527.487183 
	C521.784790,522.794556 523.580750,520.864929 528.369751,520.938232 
	C540.531555,521.124329 552.698059,521.000000 564.862732,521.000000 
	C620.686829,521.000000 676.510864,520.998596 732.334961,521.001709 
	C739.455017,521.002075 739.991394,521.547119 739.998718,528.688599 
	C740.004761,534.520935 739.927490,540.354858 740.048828,546.184631 
	C740.080872,547.722595 740.711365,549.248108 741.522095,551.350952 
	C742.040283,560.616882 742.103516,569.311096 742.099121,578.469360 
	C742.031555,598.848816 742.031555,618.764160 742.031555,638.662659 
	C658.832214,640.095520 583.419434,661.620361 520.011230,717.957092 
	C520.011230,711.193848 520.019897,705.045776 520.009644,698.897644 
	C519.953491,665.266418 519.892761,631.635193 519.904175,597.539795 
	C520.038635,581.715271 520.102478,566.354919 520.166321,550.994568 
z"/>
<path fill="#F17B0B" opacity="1.000000" stroke="none" 
	d="
M742.166748,578.005371 
	C742.103516,569.311096 742.040283,560.616882 741.904602,551.458496 
	C741.898254,517.973999 741.964478,484.953705 742.098633,451.469421 
	C743.512573,453.920074 744.858459,456.834717 746.579895,460.562775 
	C748.937805,460.562775 752.497986,460.562775 755.935059,460.562775 
	C756.992004,457.436188 758.052246,454.299988 759.473633,451.084717 
	C759.900208,474.358368 759.965637,497.711029 760.024353,521.991821 
	C759.955811,541.281677 759.893982,559.643494 759.464966,578.100952 
	C758.752625,578.710266 758.176147,579.190674 758.096985,579.742432 
	C757.035156,587.146667 757.050049,586.971069 749.389282,587.074585 
	C745.544861,587.126465 744.075684,585.622620 743.915039,581.935242 
	C743.856995,580.602417 742.779236,579.314026 742.166748,578.005371 
z"/>
<path fill="#F2840B" opacity="1.000000" stroke="none" 
	d="
M511.997803,357.470642 
	C514.388245,357.884674 516.773438,359.572449 519.541138,357.044128 
	C519.911316,399.362762 519.945740,441.720062 519.551147,484.618164 
	C518.040649,487.920898 516.959045,490.682800 516.136597,492.783051 
	C514.888733,490.340729 513.525330,487.672394 512.161987,485.004028 
	C512.108093,456.602600 512.045593,428.201141 512.003845,399.799713 
	C511.983307,385.846222 512.001099,371.892670 511.997803,357.470642 
z"/>
<path fill="#F0780B" opacity="1.000000" stroke="none" 
	d="
M512.093140,485.436920 
	C513.525330,487.672394 514.888733,490.340729 516.136597,492.783051 
	C516.959045,490.682800 518.040649,487.920898 519.478516,485.082153 
	C519.900208,506.692383 519.965576,528.379456 520.098633,550.530579 
	C520.102478,566.354919 520.038635,581.715271 519.584351,597.598511 
	C518.169312,599.039917 517.144714,599.958435 516.138794,600.860291 
	C514.647400,599.788574 513.405212,598.895874 512.091675,597.539185 
	C512.012085,593.090698 512.002625,589.106140 511.995789,585.121643 
	C511.942444,554.078918 511.889587,523.036194 511.836609,491.993439 
	C511.899200,489.952240 511.961761,487.911011 512.093140,485.436920 
z"/>
<path fill="#F7F7F7" opacity="1.000000" stroke="none" 
	d="
M511.460968,491.937592 
	C511.889587,523.036194 511.942444,554.078918 511.995789,585.121643 
	C512.002625,589.106140 512.012085,593.090698 512.022583,598.003174 
	C512.024841,638.469055 512.024841,678.006897 512.024841,718.025391 
	C448.356689,661.457886 372.858459,640.053284 289.836761,638.637878 
	C289.836761,617.243835 289.836761,596.124146 289.908813,574.540405 
	C290.042450,546.715881 290.104034,519.355347 290.165588,491.994781 
	C293.665344,491.329834 297.164062,490.090851 300.664917,490.084900 
	C368.135315,489.970215 435.606049,489.978485 503.076508,490.079498 
	C505.747009,490.083496 508.415771,491.254517 511.460968,491.937592 
z"/>
<path fill="#F17C0B" opacity="1.000000" stroke="none" 
	d="
M290.097717,491.530823 
	C290.104034,519.355347 290.042450,546.715881 289.551025,574.589478 
	C286.186584,578.056152 282.468933,578.639221 278.686310,577.893433 
	C276.412048,577.445007 274.334045,576.001160 272.096802,574.540588 
	C271.962036,556.714722 271.898315,539.352905 271.834595,521.991150 
	C271.899109,494.638184 271.963654,467.285248 272.096558,439.468262 
	C274.331543,440.000854 276.409943,441.445099 278.684570,441.893280 
	C282.467468,442.638611 286.186249,442.057556 289.478851,439.053406 
	C289.901031,456.358459 289.965454,473.712646 290.097717,491.530823 
z"/>
<path fill="#F6F5F4" opacity="1.000000" stroke="none" 
	d="
M271.467255,521.943176 
	C271.898315,539.352905 271.962036,556.714722 272.029724,575.004761 
	C272.033691,602.860596 272.033691,629.788147 272.033691,656.798340 
	C360.467438,658.291016 443.005402,677.767639 516.016235,728.497742 
	C589.338257,677.619934 671.904114,658.257141 759.832092,656.785339 
	C759.832092,630.269958 759.832092,604.137634 759.832092,578.005310 
	C759.893982,559.643494 759.955811,541.281677 760.091064,522.455627 
	C764.462158,520.046387 768.766479,518.980347 773.467529,521.943115 
	C773.898132,543.353027 773.961487,564.715088 774.029541,587.005493 
	C774.034241,615.848145 774.034241,643.762573 774.034241,671.995361 
	C772.421692,671.995361 771.450500,671.994324 770.479370,671.995483 
	C726.627502,672.047791 683.216431,676.305725 640.424072,686.041260 
	C600.776550,695.061340 562.366272,707.721985 527.747253,729.456055 
	C518.754944,735.101440 513.414978,734.987732 504.310364,729.506836 
	C448.591339,695.964417 386.819397,681.512878 322.877838,675.177307 
	C301.716553,673.080566 280.361725,672.937622 259.096558,671.878662 
	C258.822510,671.864990 258.563446,671.550903 257.832092,671.072998 
	C257.832092,646.581360 257.832092,621.793518 257.832092,597.005737 
	C257.893829,572.310486 257.955536,547.615173 258.090729,522.455688 
	C262.461884,520.046631 266.766083,518.979919 271.467255,521.943176 
z"/>
<path fill="#EF6D0C" opacity="1.000000" stroke="none" 
	d="
M257.491943,597.072327 
	C257.832092,621.793518 257.832092,646.581360 257.832092,671.072998 
	C258.563446,671.550903 258.822510,671.864990 259.096558,671.878662 
	C280.361725,672.937622 301.716553,673.080566 322.877838,675.177307 
	C386.819397,681.512878 448.591339,695.964417 504.310364,729.506836 
	C513.414978,734.987732 518.754944,735.101440 527.747253,729.456055 
	C562.366272,707.721985 600.776550,695.061340 640.424072,686.041260 
	C683.216431,676.305725 726.627502,672.047791 770.479370,671.995483 
	C771.450500,671.994324 772.421692,671.995361 774.034241,671.995361 
	C774.034241,643.762573 774.034241,615.848145 774.100952,587.469604 
	C776.333374,588.001648 778.410950,589.446594 780.684509,589.893066 
	C784.464722,590.635254 788.184692,590.063904 791.473938,587.055298 
	C791.831421,622.132507 791.831421,657.258118 791.831421,692.719727 
	C779.790405,693.143494 767.837952,693.170166 755.950439,694.061829 
	C728.596924,696.113525 701.231384,698.166077 673.951538,700.997314 
	C642.054626,704.307617 610.645508,710.442749 579.945190,719.890442 
	C564.850647,724.535645 549.912598,729.424316 537.248779,739.529358 
	C534.571899,741.665344 530.636047,742.809631 527.138794,743.228027 
	C513.450989,744.865234 500.336792,745.000732 488.390564,735.403137 
	C476.430206,725.794250 461.209686,722.517273 446.767548,718.275024 
	C417.898682,709.795044 388.338531,704.674866 358.505981,700.861755 
	C319.826416,695.917908 280.994049,693.610657 242.035248,692.982117 
	C241.557358,692.974426 241.081528,692.838379 240.035019,692.671265 
	C240.035019,661.110168 240.035019,629.522156 240.101913,597.470154 
	C242.588928,598.337036 244.870789,600.203308 247.461792,600.872375 
	C251.284790,601.859497 254.824371,600.726501 257.491943,597.072327 
z"/>
<path fill="#EF6F0C" opacity="1.000000" stroke="none" 
	d="
M759.464966,578.100952 
	C759.832092,604.137634 759.832092,630.269958 759.832092,656.785339 
	C671.904114,658.257141 589.338257,677.619934 516.016235,728.497742 
	C443.005402,677.767639 360.467438,658.291016 272.033691,656.798340 
	C272.033691,629.788147 272.033691,602.860596 272.100769,575.468872 
	C274.334045,576.001160 276.412048,577.445007 278.686310,577.893433 
	C282.468933,578.639221 286.186584,578.056152 289.478943,575.053467 
	C289.836761,596.124146 289.836761,617.243835 289.836761,638.637878 
	C372.858459,640.053284 448.356689,661.457886 512.024841,718.025391 
	C512.024841,678.006897 512.024841,638.469055 512.093933,598.467163 
	C513.405212,598.895874 514.647400,599.788574 516.138794,600.860291 
	C517.144714,599.958435 518.169312,599.039917 519.513672,598.062683 
	C519.892761,631.635193 519.953491,665.266418 520.009644,698.897644 
	C520.019897,705.045776 520.011230,711.193848 520.011230,717.957092 
	C583.419434,661.620361 658.832214,640.095520 742.031555,638.662659 
	C742.031555,618.764160 742.031555,598.848816 742.099121,578.469360 
	C742.779236,579.314026 743.856995,580.602417 743.915039,581.935242 
	C744.075684,585.622620 745.544861,587.126465 749.389282,587.074585 
	C757.050049,586.971069 757.035156,587.146667 758.096985,579.742432 
	C758.176147,579.190674 758.752625,578.710266 759.464966,578.100952 
z"/>
</svg>